<?xml version="1.0" encoding="UTF-8"?>
<svg width="118px" height="19px" viewBox="0 0 118 19" version="1.1" xmlns="http://www.w3.org/2000/svg" xmlns:xlink="http://www.w3.org/1999/xlink">
    <!-- Generator: Sketch 54.1 (76490) - https://sketchapp.com -->
    <title>VENDOR</title>
    <desc>Created with Sketch.</desc>
    <g id="Page-1" stroke="none" stroke-width="1" fill="none" fill-rule="evenodd">
        <g id="Artboard-Copy-4" transform="translate(-740.000000, -30.000000)" fill="#FFFFFF" fill-rule="nonzero">
            <g id="menu" transform="translate(220.000000, 30.000000)">
                <path d="M537.4875,0.5 L529.7375,18 L527.9125,18 L520.1625,0.5 L522.1625,0.5 L528.8625,15.7 L535.6125,0.5 L537.4875,0.5 Z M553.3875,16.4 L553.3875,18 L541.0125,18 L541.0125,0.5 L553.0125,0.5 L553.0125,2.1 L542.8625,2.1 L542.8625,8.325 L551.9125,8.325 L551.9125,9.9 L542.8625,9.9 L542.8625,16.4 L553.3875,16.4 Z M573.3625,0.5 L573.3625,18 L571.8375,18 L560.5875,3.8 L560.5875,18 L558.7375,18 L558.7375,0.5 L560.2625,0.5 L571.5375,14.7 L571.5375,0.5 L573.3625,0.5 Z M580.0625,0.5 L587.1875,0.5 C589.037509,0.5 590.670826,0.870829625 592.0875,1.6125 C593.504174,2.35417038 594.604163,3.38749338 595.3875,4.7125 C596.170837,6.03750663 596.5625,7.5499915 596.5625,9.25 C596.5625,10.9500085 596.170837,12.4624934 595.3875,13.7875 C594.604163,15.1125066 593.504174,16.1458296 592.0875,16.8875 C590.670826,17.6291704 589.037509,18 587.1875,18 L580.0625,18 L580.0625,0.5 Z M587.0875,16.4 C588.620841,16.4 589.962494,16.0958364 591.1125,15.4875 C592.262506,14.8791636 593.154164,14.0375054 593.7875,12.9625 C594.420837,11.8874946 594.7375,10.650007 594.7375,9.25 C594.7375,7.849993 594.420837,6.61250538 593.7875,5.5375 C593.154164,4.46249463 592.262506,3.62083638 591.1125,3.0125 C589.962494,2.40416363 588.620841,2.1 587.0875,2.1 L581.9125,2.1 L581.9125,16.4 L587.0875,16.4 Z M609.3625,18.15 C607.629158,18.15 606.05834,17.7625039 604.65,16.9875 C603.24166,16.2124961 602.141671,15.1500068 601.35,13.8 C600.558329,12.4499933 600.1625,10.9333418 600.1625,9.25 C600.1625,7.56665825 600.558329,6.05000675 601.35,4.7 C602.141671,3.34999325 603.24166,2.28750388 604.65,1.5125 C606.05834,0.737496125 607.629158,0.35 609.3625,0.35 C611.095842,0.35 612.658326,0.7333295 614.05,1.5 C615.441674,2.2666705 616.537496,3.32915988 617.3375,4.6875 C618.137504,6.04584013 618.5375,7.56665825 618.5375,9.25 C618.5375,10.9333418 618.137504,12.4541599 617.3375,13.8125 C616.537496,15.1708401 615.441674,16.2333295 614.05,17 C612.658326,17.7666705 611.095842,18.15 609.3625,18.15 Z M609.3625,16.5 C610.74584,16.5 611.995828,16.1875031 613.1125,15.5625 C614.229172,14.9374969 615.104164,14.0708389 615.7375,12.9625 C616.370837,11.8541611 616.6875,10.6166735 616.6875,9.25 C616.6875,7.8833265 616.370837,6.64583888 615.7375,5.5375 C615.104164,4.42916113 614.229172,3.56250313 613.1125,2.9375 C611.995828,2.31249688 610.74584,2 609.3625,2 C607.97916,2 606.725006,2.31249688 605.6,2.9375 C604.474994,3.56250313 603.59167,4.42916113 602.95,5.5375 C602.30833,6.64583888 601.9875,7.8833265 601.9875,9.25 C601.9875,10.6166735 602.30833,11.8541611 602.95,12.9625 C603.59167,14.0708389 604.474994,14.9374969 605.6,15.5625 C606.725006,16.1875031 607.97916,16.5 609.3625,16.5 Z M635.6375,18 L631.6375,12.375 C631.187498,12.4250003 630.720836,12.45 630.2375,12.45 L625.5375,12.45 L625.5375,18 L623.6875,18 L623.6875,0.5 L630.2375,0.5 C632.470845,0.5 634.220827,1.033328 635.4875,2.1 C636.754173,3.166672 637.3875,4.633324 637.3875,6.5 C637.3875,7.8666735 637.04167,9.02082863 636.35,9.9625 C635.65833,10.9041714 634.67084,11.5833313 633.3875,12 L637.6625,18 L635.6375,18 Z M630.1875,10.875 C631.920842,10.875 633.245829,10.4916705 634.1625,9.725 C635.079171,8.9583295 635.5375,7.88334025 635.5375,6.5 C635.5375,5.08332625 635.079171,3.99583713 634.1625,3.2375 C633.245829,2.47916288 631.920842,2.1 630.1875,2.1 L625.5375,2.1 L625.5375,10.875 L630.1875,10.875 Z" id="VENDOR"></path>
            </g>
        </g>
    </g>
</svg>